STARTFONT 2.1
FONT -FontForge-Satisfy-Book-R-Normal--9-90-72-72-P-38-ISO10646-1
SIZE 9 72 72
FONTBOUNDINGBOX 10 12 -2 -4
COMMENT "Generated by fontforge, http://fontforge.sourceforge.net"
COMMENT "Copyright (c) 2011 by Font Diner, Inc. All rights reserved."
STARTPROPERTIES 39
FOUNDRY "FontForge"
FAMILY_NAME "Satisfy"
WEIGHT_NAME "Book"
SLANT "R"
SETWIDTH_NAME "Normal"
ADD_STYLE_NAME ""
PIXEL_SIZE 9
POINT_SIZE 90
RESOLUTION_X 72
RESOLUTION_Y 72
SPACING "P"
AVERAGE_WIDTH 38
CHARSET_REGISTRY "ISO10646"
CHARSET_ENCODING "1"
FONTNAME_REGISTRY ""
CHARSET_COLLECTIONS "ISO10646-1"
FONT_NAME "Satisfy-Regular"
FACE_NAME "Satisfy Regular"
COPYRIGHT "Copyright (c) 2011 by Font Diner, Inc. All rights reserved."
FONT_VERSION "1.001"
FONT_ASCENT 7
FONT_DESCENT 2
UNDERLINE_POSITION -1
UNDERLINE_THICKNESS 1
X_HEIGHT 3
CAP_HEIGHT 6
RAW_ASCENT 799
RAW_DESCENT 200
NORM_SPACE 3
RELATIVE_WEIGHT 40
RELATIVE_SETWIDTH 50
SUPERSCRIPT_X 0
SUPERSCRIPT_Y 4
SUPERSCRIPT_SIZE 5
SUBSCRIPT_X 0
SUBSCRIPT_Y 1
SUBSCRIPT_SIZE 5
AVG_LOWERCASE_WIDTH 36
AVG_UPPERCASE_WIDTH 50
ENDPROPERTIES
CHARS 227
STARTCHAR space
ENCODING 32
SWIDTH 280 0
DWIDTH 3 0
BBX 1 1 0 0
BITMAP
00
ENDCHAR
STARTCHAR exclam
ENCODING 33
SWIDTH 249 0
DWIDTH 2 0
BBX 2 7 0 0
BITMAP
40
40
40
40
80
80
80
ENDCHAR
STARTCHAR quotedbl
ENCODING 34
SWIDTH 249 0
DWIDTH 2 0
BBX 3 3 0 4
BITMAP
60
60
A0
ENDCHAR
STARTCHAR numbersign
ENCODING 35
SWIDTH 417 0
DWIDTH 4 0
BBX 4 5 0 1
BITMAP
50
F0
60
F0
A0
ENDCHAR
STARTCHAR dollar
ENCODING 36
SWIDTH 292 0
DWIDTH 3 0
BBX 3 7 0 0
BITMAP
20
60
A0
40
40
C0
80
ENDCHAR
STARTCHAR percent
ENCODING 37
SWIDTH 574 0
DWIDTH 5 0
BBX 5 7 0 0
BITMAP
48
A8
B0
60
38
68
B8
ENDCHAR
STARTCHAR ampersand
ENCODING 38
SWIDTH 460 0
DWIDTH 4 0
BBX 4 7 0 0
BITMAP
30
50
60
40
C0
B0
E0
ENDCHAR
STARTCHAR quotesingle
ENCODING 39
SWIDTH 113 0
DWIDTH 1 0
BBX 2 3 0 4
BITMAP
40
40
80
ENDCHAR
STARTCHAR parenleft
ENCODING 40
SWIDTH 234 0
DWIDTH 2 0
BBX 3 8 0 -1
BITMAP
20
40
40
80
80
80
80
80
ENDCHAR
STARTCHAR parenright
ENCODING 41
SWIDTH 204 0
DWIDTH 2 0
BBX 3 8 -1 -1
BITMAP
20
20
20
20
40
40
40
80
ENDCHAR
STARTCHAR asterisk
ENCODING 42
SWIDTH 327 0
DWIDTH 3 0
BBX 3 2 0 4
BITMAP
A0
60
ENDCHAR
STARTCHAR plus
ENCODING 43
SWIDTH 350 0
DWIDTH 3 0
BBX 3 3 0 2
BITMAP
40
E0
40
ENDCHAR
STARTCHAR comma
ENCODING 44
SWIDTH 200 0
DWIDTH 2 0
BBX 1 2 0 -1
BITMAP
80
80
ENDCHAR
STARTCHAR hyphen
ENCODING 45
SWIDTH 353 0
DWIDTH 3 0
BBX 3 1 0 2
BITMAP
E0
ENDCHAR
STARTCHAR period
ENCODING 46
SWIDTH 213 0
DWIDTH 2 0
BBX 1 1 0 0
BITMAP
80
ENDCHAR
STARTCHAR slash
ENCODING 47
SWIDTH 262 0
DWIDTH 2 0
BBX 5 7 -1 0
BITMAP
08
10
20
20
40
40
80
ENDCHAR
STARTCHAR zero
ENCODING 48
SWIDTH 489 0
DWIDTH 4 0
BBX 4 7 0 0
BITMAP
20
50
50
90
90
90
E0
ENDCHAR
STARTCHAR one
ENCODING 49
SWIDTH 272 0
DWIDTH 2 0
BBX 2 7 0 0
BITMAP
40
40
40
40
40
80
80
ENDCHAR
STARTCHAR two
ENCODING 50
SWIDTH 448 0
DWIDTH 4 0
BBX 4 7 0 0
BITMAP
20
50
50
20
40
80
E0
ENDCHAR
STARTCHAR three
ENCODING 51
SWIDTH 462 0
DWIDTH 4 0
BBX 4 7 0 0
BITMAP
20
50
50
20
50
20
E0
ENDCHAR
STARTCHAR four
ENCODING 52
SWIDTH 452 0
DWIDTH 4 0
BBX 4 7 0 0
BITMAP
10
30
50
A0
F0
20
20
ENDCHAR
STARTCHAR five
ENCODING 53
SWIDTH 444 0
DWIDTH 4 0
BBX 4 7 0 0
BITMAP
30
50
40
E0
10
A0
C0
ENDCHAR
STARTCHAR six
ENCODING 54
SWIDTH 477 0
DWIDTH 4 0
BBX 4 7 0 0
BITMAP
30
50
40
70
D0
90
E0
ENDCHAR
STARTCHAR seven
ENCODING 55
SWIDTH 406 0
DWIDTH 4 0
BBX 4 7 0 0
BITMAP
70
90
20
20
40
40
80
ENDCHAR
STARTCHAR eight
ENCODING 56
SWIDTH 444 0
DWIDTH 4 0
BBX 4 7 0 0
BITMAP
20
50
50
60
A0
A0
E0
ENDCHAR
STARTCHAR nine
ENCODING 57
SWIDTH 462 0
DWIDTH 4 0
BBX 4 7 0 0
BITMAP
20
50
50
90
70
A0
C0
ENDCHAR
STARTCHAR colon
ENCODING 58
SWIDTH 226 0
DWIDTH 2 0
BBX 1 3 0 0
BITMAP
80
00
80
ENDCHAR
STARTCHAR semicolon
ENCODING 59
SWIDTH 212 0
DWIDTH 2 0
BBX 1 4 0 -1
BITMAP
80
00
80
80
ENDCHAR
STARTCHAR less
ENCODING 60
SWIDTH 271 0
DWIDTH 2 0
BBX 3 4 0 1
BITMAP
20
C0
80
40
ENDCHAR
STARTCHAR equal
ENCODING 61
SWIDTH 374 0
DWIDTH 3 0
BBX 3 2 0 2
BITMAP
E0
E0
ENDCHAR
STARTCHAR greater
ENCODING 62
SWIDTH 250 0
DWIDTH 2 0
BBX 3 4 -1 1
BITMAP
40
20
20
C0
ENDCHAR
STARTCHAR question
ENCODING 63
SWIDTH 413 0
DWIDTH 4 0
BBX 4 7 0 0
BITMAP
60
90
10
20
40
80
80
ENDCHAR
STARTCHAR at
ENCODING 64
SWIDTH 648 0
DWIDTH 6 0
BBX 6 6 0 0
BITMAP
38
74
D4
D4
E8
D0
ENDCHAR
STARTCHAR A
ENCODING 65
SWIDTH 552 0
DWIDTH 5 0
BBX 6 9 -1 -2
BITMAP
08
14
28
28
28
F8
48
48
88
ENDCHAR
STARTCHAR B
ENCODING 66
SWIDTH 607 0
DWIDTH 5 0
BBX 5 9 0 -2
BITMAP
30
68
48
48
70
48
88
90
E0
ENDCHAR
STARTCHAR C
ENCODING 67
SWIDTH 548 0
DWIDTH 5 0
BBX 5 9 0 -2
BITMAP
10
28
48
98
80
80
80
90
60
ENDCHAR
STARTCHAR D
ENCODING 68
SWIDTH 632 0
DWIDTH 6 0
BBX 5 9 0 -2
BITMAP
30
48
48
48
48
48
90
B0
40
ENDCHAR
STARTCHAR E
ENCODING 69
SWIDTH 523 0
DWIDTH 5 0
BBX 5 9 0 -2
BITMAP
30
48
58
40
60
80
90
90
60
ENDCHAR
STARTCHAR F
ENCODING 70
SWIDTH 585 0
DWIDTH 5 0
BBX 5 9 0 -2
BITMAP
38
C8
48
10
78
20
20
20
20
ENDCHAR
STARTCHAR G
ENCODING 71
SWIDTH 612 0
DWIDTH 6 0
BBX 5 9 0 -2
BITMAP
10
28
48
58
80
B8
90
90
60
ENDCHAR
STARTCHAR H
ENCODING 72
SWIDTH 649 0
DWIDTH 6 0
BBX 6 9 0 -2
BITMAP
20
44
48
48
7C
90
90
90
90
ENDCHAR
STARTCHAR I
ENCODING 73
SWIDTH 537 0
DWIDTH 5 0
BBX 6 9 -1 -2
BITMAP
08
14
18
18
18
7C
90
90
60
ENDCHAR
STARTCHAR J
ENCODING 74
SWIDTH 500 0
DWIDTH 5 0
BBX 6 9 -1 -2
BITMAP
1C
08
08
08
08
70
90
90
60
ENDCHAR
STARTCHAR K
ENCODING 75
SWIDTH 497 0
DWIDTH 4 0
BBX 5 9 0 -2
BITMAP
28
48
50
50
E0
A0
A0
A0
B0
ENDCHAR
STARTCHAR L
ENCODING 76
SWIDTH 492 0
DWIDTH 4 0
BBX 6 9 -1 -2
BITMAP
04
0C
18
70
10
20
20
E0
18
ENDCHAR
STARTCHAR M
ENCODING 77
SWIDTH 733 0
DWIDTH 7 0
BBX 8 9 -1 -2
BITMAP
11
12
36
36
3A
BA
DC
C4
42
ENDCHAR
STARTCHAR N
ENCODING 78
SWIDTH 541 0
DWIDTH 5 0
BBX 6 9 0 -2
BITMAP
08
4C
58
B0
B0
B0
B0
A0
A0
ENDCHAR
STARTCHAR O
ENCODING 79
SWIDTH 567 0
DWIDTH 5 0
BBX 5 9 0 -2
BITMAP
30
48
48
88
88
90
90
90
60
ENDCHAR
STARTCHAR P
ENCODING 80
SWIDTH 552 0
DWIDTH 5 0
BBX 5 9 0 -2
BITMAP
30
C8
48
48
50
60
80
80
80
ENDCHAR
STARTCHAR Q
ENCODING 81
SWIDTH 583 0
DWIDTH 5 0
BBX 5 9 0 -2
BITMAP
30
48
48
88
88
90
50
E0
58
ENDCHAR
STARTCHAR R
ENCODING 82
SWIDTH 560 0
DWIDTH 5 0
BBX 5 9 0 -2
BITMAP
30
48
48
48
D0
60
A0
90
98
ENDCHAR
STARTCHAR S
ENCODING 83
SWIDTH 474 0
DWIDTH 4 0
BBX 4 9 0 -2
BITMAP
30
50
50
40
20
20
A0
A0
C0
ENDCHAR
STARTCHAR T
ENCODING 84
SWIDTH 423 0
DWIDTH 4 0
BBX 5 9 0 -2
BITMAP
78
A0
20
20
40
40
40
40
80
ENDCHAR
STARTCHAR U
ENCODING 85
SWIDTH 574 0
DWIDTH 5 0
BBX 6 9 0 -2
BITMAP
24
48
48
48
90
90
90
B0
50
ENDCHAR
STARTCHAR V
ENCODING 86
SWIDTH 503 0
DWIDTH 5 0
BBX 5 9 0 -2
BITMAP
08
48
50
90
90
A0
A0
40
40
ENDCHAR
STARTCHAR W
ENCODING 87
SWIDTH 817 0
DWIDTH 7 0
BBX 7 9 0 -2
BITMAP
22
4A
52
92
92
92
B4
B4
48
ENDCHAR
STARTCHAR X
ENCODING 88
SWIDTH 579 0
DWIDTH 5 0
BBX 6 9 0 -2
BITMAP
44
A8
F0
30
20
20
60
94
18
ENDCHAR
STARTCHAR Y
ENCODING 89
SWIDTH 532 0
DWIDTH 5 0
BBX 5 9 0 -2
BITMAP
48
48
48
90
90
B0
50
A0
C0
ENDCHAR
STARTCHAR Z
ENCODING 90
SWIDTH 455 0
DWIDTH 4 0
BBX 5 9 -1 -2
BITMAP
38
48
08
10
20
20
40
A0
D0
ENDCHAR
STARTCHAR bracketleft
ENCODING 91
SWIDTH 202 0
DWIDTH 2 0
BBX 3 8 0 -1
BITMAP
60
40
40
80
80
80
80
80
ENDCHAR
STARTCHAR backslash
ENCODING 92
SWIDTH 273 0
DWIDTH 2 0
BBX 2 7 0 0
BITMAP
80
80
80
40
40
40
40
ENDCHAR
STARTCHAR bracketright
ENCODING 93
SWIDTH 216 0
DWIDTH 2 0
BBX 3 8 -1 -1
BITMAP
20
20
20
20
40
40
40
80
ENDCHAR
STARTCHAR asciicircum
ENCODING 94
SWIDTH 287 0
DWIDTH 3 0
BBX 3 4 0 3
BITMAP
20
60
A0
A0
ENDCHAR
STARTCHAR underscore
ENCODING 95
SWIDTH 439 0
DWIDTH 4 0
BBX 5 1 -1 0
BITMAP
F8
ENDCHAR
STARTCHAR grave
ENCODING 96
SWIDTH 567 0
DWIDTH 5 0
BBX 2 1 2 5
BITMAP
C0
ENDCHAR
STARTCHAR a
ENCODING 97
SWIDTH 435 0
DWIDTH 4 0
BBX 5 4 0 0
BITMAP
60
A0
A8
F0
ENDCHAR
STARTCHAR b
ENCODING 98
SWIDTH 415 0
DWIDTH 4 0
BBX 5 6 0 0
BITMAP
40
40
C0
B8
A0
C0
ENDCHAR
STARTCHAR c
ENCODING 99
SWIDTH 363 0
DWIDTH 3 0
BBX 4 4 0 0
BITMAP
40
A0
90
E0
ENDCHAR
STARTCHAR d
ENCODING 100
SWIDTH 483 0
DWIDTH 4 0
BBX 5 6 0 0
BITMAP
10
10
50
A0
A8
F0
ENDCHAR
STARTCHAR e
ENCODING 101
SWIDTH 372 0
DWIDTH 3 0
BBX 4 4 0 0
BITMAP
40
A0
D0
E0
ENDCHAR
STARTCHAR f
ENCODING 102
SWIDTH 325 0
DWIDTH 3 0
BBX 5 10 -1 -4
BITMAP
20
20
20
78
40
40
60
A0
A0
C0
ENDCHAR
STARTCHAR g
ENCODING 103
SWIDTH 459 0
DWIDTH 4 0
BBX 5 8 0 -4
BITMAP
40
A0
A8
F0
40
C0
C0
C0
ENDCHAR
STARTCHAR h
ENCODING 104
SWIDTH 465 0
DWIDTH 4 0
BBX 5 6 0 0
BITMAP
40
40
60
E0
A8
B0
ENDCHAR
STARTCHAR i
ENCODING 105
SWIDTH 274 0
DWIDTH 2 0
BBX 3 6 0 0
BITMAP
40
00
40
80
A0
C0
ENDCHAR
STARTCHAR j
ENCODING 106
SWIDTH 267 0
DWIDTH 2 0
BBX 5 10 -2 -4
BITMAP
10
00
10
20
28
30
20
C0
C0
C0
ENDCHAR
STARTCHAR k
ENCODING 107
SWIDTH 440 0
DWIDTH 4 0
BBX 5 6 0 0
BITMAP
40
40
A0
E0
E8
B0
ENDCHAR
STARTCHAR l
ENCODING 108
SWIDTH 218 0
DWIDTH 2 0
BBX 2 6 0 0
BITMAP
40
40
40
80
80
80
ENDCHAR
STARTCHAR m
ENCODING 109
SWIDTH 717 0
DWIDTH 6 0
BBX 7 3 0 0
BITMAP
78
AA
AC
ENDCHAR
STARTCHAR n
ENCODING 110
SWIDTH 461 0
DWIDTH 4 0
BBX 5 4 0 0
BITMAP
20
E0
A8
B0
ENDCHAR
STARTCHAR o
ENCODING 111
SWIDTH 393 0
DWIDTH 4 0
BBX 4 4 0 0
BITMAP
40
B0
E0
C0
ENDCHAR
STARTCHAR p
ENCODING 112
SWIDTH 451 0
DWIDTH 4 0
BBX 6 7 -1 -4
BITMAP
70
54
78
40
80
80
80
ENDCHAR
STARTCHAR q
ENCODING 113
SWIDTH 462 0
DWIDTH 4 0
BBX 5 8 0 -4
BITMAP
50
A0
A8
F0
20
40
40
40
ENDCHAR
STARTCHAR r
ENCODING 114
SWIDTH 406 0
DWIDTH 4 0
BBX 5 4 -1 0
BITMAP
60
30
68
B0
ENDCHAR
STARTCHAR s
ENCODING 115
SWIDTH 351 0
DWIDTH 3 0
BBX 3 4 0 0
BITMAP
40
40
C0
E0
ENDCHAR
STARTCHAR t
ENCODING 116
SWIDTH 301 0
DWIDTH 3 0
BBX 5 6 -1 0
BITMAP
20
F8
20
40
50
60
ENDCHAR
STARTCHAR u
ENCODING 117
SWIDTH 468 0
DWIDTH 4 0
BBX 5 3 0 0
BITMAP
A0
A8
F0
ENDCHAR
STARTCHAR v
ENCODING 118
SWIDTH 427 0
DWIDTH 4 0
BBX 5 4 0 0
BITMAP
10
A8
B0
C0
ENDCHAR
STARTCHAR w
ENCODING 119
SWIDTH 646 0
DWIDTH 6 0
BBX 7 4 0 0
BITMAP
20
AA
AC
F0
ENDCHAR
STARTCHAR x
ENCODING 120
SWIDTH 399 0
DWIDTH 4 0
BBX 4 4 0 0
BITMAP
A0
60
40
F0
ENDCHAR
STARTCHAR y
ENCODING 121
SWIDTH 406 0
DWIDTH 4 0
BBX 3 7 0 -4
BITMAP
A0
A0
E0
40
40
40
40
ENDCHAR
STARTCHAR z
ENCODING 122
SWIDTH 448 0
DWIDTH 4 0
BBX 5 8 0 -4
BITMAP
60
20
28
50
60
A0
C0
C0
ENDCHAR
STARTCHAR braceleft
ENCODING 123
SWIDTH 243 0
DWIDTH 2 0
BBX 3 9 0 -1
BITMAP
20
40
40
40
80
80
80
80
80
ENDCHAR
STARTCHAR bar
ENCODING 124
SWIDTH 253 0
DWIDTH 2 0
BBX 2 7 0 0
BITMAP
40
40
40
40
80
80
80
ENDCHAR
STARTCHAR braceright
ENCODING 125
SWIDTH 243 0
DWIDTH 2 0
BBX 3 8 -1 -1
BITMAP
20
20
20
20
40
40
40
C0
ENDCHAR
STARTCHAR asciitilde
ENCODING 126
SWIDTH 329 0
DWIDTH 3 0
BBX 3 1 0 3
BITMAP
E0
ENDCHAR
STARTCHAR uni00A0
ENCODING 160
SWIDTH 280 0
DWIDTH 3 0
BBX 1 1 0 0
BITMAP
00
ENDCHAR
STARTCHAR exclamdown
ENCODING 161
SWIDTH 249 0
DWIDTH 2 0
BBX 2 7 0 0
BITMAP
40
00
40
40
80
80
80
ENDCHAR
STARTCHAR cent
ENCODING 162
SWIDTH 322 0
DWIDTH 3 0
BBX 3 6 0 0
BITMAP
60
A0
80
80
E0
80
ENDCHAR
STARTCHAR sterling
ENCODING 163
SWIDTH 318 0
DWIDTH 3 0
BBX 3 6 0 0
BITMAP
60
60
80
C0
80
C0
ENDCHAR
STARTCHAR currency
ENCODING 164
SWIDTH 347 0
DWIDTH 3 0
BBX 3 3 0 2
BITMAP
E0
A0
E0
ENDCHAR
STARTCHAR yen
ENCODING 165
SWIDTH 326 0
DWIDTH 3 0
BBX 4 5 0 1
BITMAP
90
60
40
C0
C0
ENDCHAR
STARTCHAR brokenbar
ENCODING 166
SWIDTH 253 0
DWIDTH 2 0
BBX 2 7 0 0
BITMAP
40
40
40
00
80
80
80
ENDCHAR
STARTCHAR section
ENCODING 167
SWIDTH 297 0
DWIDTH 3 0
BBX 3 7 0 0
BITMAP
60
A0
40
A0
C0
40
C0
ENDCHAR
STARTCHAR dieresis
ENCODING 168
SWIDTH 567 0
DWIDTH 5 0
BBX 2 1 2 5
BITMAP
C0
ENDCHAR
STARTCHAR copyright
ENCODING 169
SWIDTH 456 0
DWIDTH 4 0
BBX 4 5 0 2
BITMAP
20
70
D0
F0
70
ENDCHAR
STARTCHAR ordfeminine
ENCODING 170
SWIDTH 373 0
DWIDTH 3 0
BBX 5 4 -1 0
BITMAP
70
58
70
F0
ENDCHAR
STARTCHAR guillemotleft
ENCODING 171
SWIDTH 346 0
DWIDTH 3 0
BBX 3 4 0 0
BITMAP
20
C0
C0
C0
ENDCHAR
STARTCHAR logicalnot
ENCODING 172
SWIDTH 512 0
DWIDTH 5 0
BBX 4 3 0 1
BITMAP
F0
10
10
ENDCHAR
STARTCHAR sfthyphen
ENCODING 173
SWIDTH 353 0
DWIDTH 3 0
BBX 3 1 0 2
BITMAP
E0
ENDCHAR
STARTCHAR registered
ENCODING 174
SWIDTH 456 0
DWIDTH 4 0
BBX 4 5 0 2
BITMAP
20
70
F0
F0
70
ENDCHAR
STARTCHAR macron
ENCODING 175
SWIDTH 567 0
DWIDTH 5 0
BBX 2 1 2 5
BITMAP
C0
ENDCHAR
STARTCHAR degree
ENCODING 176
SWIDTH 144 0
DWIDTH 1 0
BBX 1 1 1 5
BITMAP
80
ENDCHAR
STARTCHAR twosuperior
ENCODING 178
SWIDTH 268 0
DWIDTH 2 0
BBX 3 5 0 2
BITMAP
60
60
40
80
E0
ENDCHAR
STARTCHAR threesuperior
ENCODING 179
SWIDTH 262 0
DWIDTH 2 0
BBX 3 5 0 2
BITMAP
40
A0
40
A0
40
ENDCHAR
STARTCHAR acute
ENCODING 180
SWIDTH 567 0
DWIDTH 5 0
BBX 2 1 2 5
BITMAP
C0
ENDCHAR
STARTCHAR mu
ENCODING 181
SWIDTH 453 0
DWIDTH 4 0
BBX 5 5 -1 -2
BITMAP
50
58
78
80
80
ENDCHAR
STARTCHAR paragraph
ENCODING 182
SWIDTH 411 0
DWIDTH 4 0
BBX 5 7 0 0
BITMAP
38
70
F0
50
60
60
60
ENDCHAR
STARTCHAR periodcentered
ENCODING 183
SWIDTH 168 0
DWIDTH 2 0
BBX 1 1 0 3
BITMAP
80
ENDCHAR
STARTCHAR cedilla
ENCODING 184
SWIDTH 567 0
DWIDTH 5 0
BBX 2 2 2 -1
BITMAP
80
C0
ENDCHAR
STARTCHAR onesuperior
ENCODING 185
SWIDTH 150 0
DWIDTH 1 0
BBX 2 5 0 2
BITMAP
40
40
80
80
80
ENDCHAR
STARTCHAR ordmasculine
ENCODING 186
SWIDTH 319 0
DWIDTH 3 0
BBX 4 4 -1 0
BITMAP
70
70
60
E0
ENDCHAR
STARTCHAR guillemotright
ENCODING 187
SWIDTH 346 0
DWIDTH 3 0
BBX 4 3 -1 0
BITMAP
60
50
E0
ENDCHAR
STARTCHAR onequarter
ENCODING 188
SWIDTH 579 0
DWIDTH 5 0
BBX 5 7 0 0
BITMAP
48
50
50
A8
D8
68
90
ENDCHAR
STARTCHAR onehalf
ENCODING 189
SWIDTH 603 0
DWIDTH 5 0
BBX 5 7 0 0
BITMAP
48
50
50
B8
C8
50
98
ENDCHAR
STARTCHAR threequarters
ENCODING 190
SWIDTH 669 0
DWIDTH 6 0
BBX 6 7 0 0
BITMAP
44
A8
50
B4
68
54
48
ENDCHAR
STARTCHAR questiondown
ENCODING 191
SWIDTH 413 0
DWIDTH 4 0
BBX 4 7 0 0
BITMAP
10
00
20
60
80
A0
E0
ENDCHAR
STARTCHAR Agrave
ENCODING 192
SWIDTH 552 0
DWIDTH 5 0
BBX 6 10 -1 -2
BITMAP
0C
08
14
28
28
28
F8
48
48
88
ENDCHAR
STARTCHAR Aacute
ENCODING 193
SWIDTH 552 0
DWIDTH 5 0
BBX 6 10 -1 -2
BITMAP
0C
08
14
28
28
28
F8
48
48
88
ENDCHAR
STARTCHAR Acircumflex
ENCODING 194
SWIDTH 552 0
DWIDTH 5 0
BBX 6 10 -1 -2
BITMAP
0C
08
14
28
28
28
F8
48
48
88
ENDCHAR
STARTCHAR Atilde
ENCODING 195
SWIDTH 552 0
DWIDTH 5 0
BBX 6 10 -1 -2
BITMAP
0C
08
14
28
28
28
F8
48
48
88
ENDCHAR
STARTCHAR Adieresis
ENCODING 196
SWIDTH 552 0
DWIDTH 5 0
BBX 6 10 -1 -2
BITMAP
0C
08
14
28
28
28
F8
48
48
88
ENDCHAR
STARTCHAR Aring
ENCODING 197
SWIDTH 552 0
DWIDTH 5 0
BBX 6 10 -1 -2
BITMAP
08
08
14
28
28
28
F8
48
48
88
ENDCHAR
STARTCHAR AE
ENCODING 198
SWIDTH 869 0
DWIDTH 8 0
BBX 9 9 -1 -2
BITMAP
0B00
1480
2580
2C00
2E00
F800
4880
4900
8E00
ENDCHAR
STARTCHAR Ccedilla
ENCODING 199
SWIDTH 548 0
DWIDTH 5 0
BBX 5 11 0 -4
BITMAP
10
28
48
98
80
80
80
90
60
20
40
ENDCHAR
STARTCHAR Egrave
ENCODING 200
SWIDTH 523 0
DWIDTH 5 0
BBX 5 10 0 -2
BITMAP
10
30
48
58
40
60
80
90
90
60
ENDCHAR
STARTCHAR Eacute
ENCODING 201
SWIDTH 523 0
DWIDTH 5 0
BBX 5 10 0 -2
BITMAP
18
30
48
58
40
60
80
90
90
60
ENDCHAR
STARTCHAR Ecircumflex
ENCODING 202
SWIDTH 523 0
DWIDTH 5 0
BBX 5 10 0 -2
BITMAP
18
30
48
58
40
60
80
90
90
60
ENDCHAR
STARTCHAR Edieresis
ENCODING 203
SWIDTH 523 0
DWIDTH 5 0
BBX 5 10 0 -2
BITMAP
18
30
48
58
40
60
80
90
90
60
ENDCHAR
STARTCHAR Igrave
ENCODING 204
SWIDTH 537 0
DWIDTH 5 0
BBX 6 10 -1 -2
BITMAP
0C
08
14
18
18
18
7C
90
90
60
ENDCHAR
STARTCHAR Iacute
ENCODING 205
SWIDTH 537 0
DWIDTH 5 0
BBX 6 10 -1 -2
BITMAP
04
08
14
18
18
18
7C
90
90
60
ENDCHAR
STARTCHAR Icircumflex
ENCODING 206
SWIDTH 537 0
DWIDTH 5 0
BBX 6 10 -1 -2
BITMAP
0C
08
14
18
18
18
7C
90
90
60
ENDCHAR
STARTCHAR Idieresis
ENCODING 207
SWIDTH 537 0
DWIDTH 5 0
BBX 6 10 -1 -2
BITMAP
0C
08
14
18
18
18
7C
90
90
60
ENDCHAR
STARTCHAR Eth
ENCODING 208
SWIDTH 632 0
DWIDTH 6 0
BBX 5 9 0 -2
BITMAP
30
48
48
48
E8
48
90
B0
40
ENDCHAR
STARTCHAR Ntilde
ENCODING 209
SWIDTH 541 0
DWIDTH 5 0
BBX 6 10 0 -2
BITMAP
38
08
4C
58
B0
B0
B0
B0
A0
A0
ENDCHAR
STARTCHAR Ograve
ENCODING 210
SWIDTH 567 0
DWIDTH 5 0
BBX 5 10 0 -2
BITMAP
10
30
48
48
88
88
90
90
90
60
ENDCHAR
STARTCHAR Oacute
ENCODING 211
SWIDTH 567 0
DWIDTH 5 0
BBX 5 10 0 -2
BITMAP
10
30
48
48
88
88
90
90
90
60
ENDCHAR
STARTCHAR Ocircumflex
ENCODING 212
SWIDTH 567 0
DWIDTH 5 0
BBX 5 10 0 -2
BITMAP
38
30
48
48
88
88
90
90
90
60
ENDCHAR
STARTCHAR Otilde
ENCODING 213
SWIDTH 567 0
DWIDTH 5 0
BBX 5 10 0 -2
BITMAP
38
30
48
48
88
88
90
90
90
60
ENDCHAR
STARTCHAR Odieresis
ENCODING 214
SWIDTH 567 0
DWIDTH 5 0
BBX 5 10 0 -2
BITMAP
28
30
48
48
88
88
90
90
90
60
ENDCHAR
STARTCHAR multiply
ENCODING 215
SWIDTH 281 0
DWIDTH 3 0
BBX 3 4 0 1
BITMAP
A0
40
C0
C0
ENDCHAR
STARTCHAR Oslash
ENCODING 216
SWIDTH 597 0
DWIDTH 5 0
BBX 5 9 0 -2
BITMAP
38
48
58
58
A8
C8
D0
90
E0
ENDCHAR
STARTCHAR Ugrave
ENCODING 217
SWIDTH 574 0
DWIDTH 5 0
BBX 6 10 0 -2
BITMAP
10
24
48
48
48
90
90
90
B0
50
ENDCHAR
STARTCHAR Uacute
ENCODING 218
SWIDTH 574 0
DWIDTH 5 0
BBX 6 10 0 -2
BITMAP
18
24
48
48
48
90
90
90
B0
50
ENDCHAR
STARTCHAR Ucircumflex
ENCODING 219
SWIDTH 574 0
DWIDTH 5 0
BBX 6 10 0 -2
BITMAP
18
24
48
48
48
90
90
90
B0
50
ENDCHAR
STARTCHAR Udieresis
ENCODING 220
SWIDTH 574 0
DWIDTH 5 0
BBX 6 10 0 -2
BITMAP
18
24
48
48
48
90
90
90
B0
50
ENDCHAR
STARTCHAR Yacute
ENCODING 221
SWIDTH 532 0
DWIDTH 5 0
BBX 5 10 0 -2
BITMAP
10
48
48
48
90
90
B0
50
A0
C0
ENDCHAR
STARTCHAR Thorn
ENCODING 222
SWIDTH 569 0
DWIDTH 5 0
BBX 5 9 0 -2
BITMAP
20
40
70
C8
88
90
E0
80
80
ENDCHAR
STARTCHAR germandbls
ENCODING 223
SWIDTH 495 0
DWIDTH 4 0
BBX 5 10 -1 -4
BITMAP
10
28
30
50
C8
58
A0
A0
A0
C0
ENDCHAR
STARTCHAR agrave
ENCODING 224
SWIDTH 435 0
DWIDTH 4 0
BBX 5 5 0 0
BITMAP
60
60
A0
A8
F0
ENDCHAR
STARTCHAR aacute
ENCODING 225
SWIDTH 435 0
DWIDTH 4 0
BBX 5 5 0 0
BITMAP
20
60
A0
A8
F0
ENDCHAR
STARTCHAR acircumflex
ENCODING 226
SWIDTH 435 0
DWIDTH 4 0
BBX 5 5 0 0
BITMAP
60
60
A0
A8
F0
ENDCHAR
STARTCHAR atilde
ENCODING 227
SWIDTH 435 0
DWIDTH 4 0
BBX 5 5 0 0
BITMAP
60
60
A0
A8
F0
ENDCHAR
STARTCHAR adieresis
ENCODING 228
SWIDTH 435 0
DWIDTH 4 0
BBX 5 5 0 0
BITMAP
60
60
A0
A8
F0
ENDCHAR
STARTCHAR aring
ENCODING 229
SWIDTH 435 0
DWIDTH 4 0
BBX 5 5 0 0
BITMAP
60
60
A0
A8
F0
ENDCHAR
STARTCHAR ae
ENCODING 230
SWIDTH 594 0
DWIDTH 5 0
BBX 6 4 0 0
BITMAP
70
A8
B4
F8
ENDCHAR
STARTCHAR ccedilla
ENCODING 231
SWIDTH 363 0
DWIDTH 3 0
BBX 4 6 0 -2
BITMAP
40
A0
90
E0
80
C0
ENDCHAR
STARTCHAR egrave
ENCODING 232
SWIDTH 372 0
DWIDTH 3 0
BBX 4 5 0 0
BITMAP
60
40
A0
D0
E0
ENDCHAR
STARTCHAR eacute
ENCODING 233
SWIDTH 372 0
DWIDTH 3 0
BBX 4 5 0 0
BITMAP
20
40
A0
D0
E0
ENDCHAR
STARTCHAR ecircumflex
ENCODING 234
SWIDTH 372 0
DWIDTH 3 0
BBX 4 5 0 0
BITMAP
60
40
A0
D0
E0
ENDCHAR
STARTCHAR edieresis
ENCODING 235
SWIDTH 372 0
DWIDTH 3 0
BBX 4 5 0 0
BITMAP
60
40
A0
D0
E0
ENDCHAR
STARTCHAR igrave
ENCODING 236
SWIDTH 274 0
DWIDTH 2 0
BBX 3 5 0 0
BITMAP
C0
40
80
A0
C0
ENDCHAR
STARTCHAR iacute
ENCODING 237
SWIDTH 274 0
DWIDTH 2 0
BBX 3 5 0 0
BITMAP
60
40
80
A0
C0
ENDCHAR
STARTCHAR icircumflex
ENCODING 238
SWIDTH 274 0
DWIDTH 2 0
BBX 3 5 0 0
BITMAP
E0
40
80
A0
C0
ENDCHAR
STARTCHAR idieresis
ENCODING 239
SWIDTH 274 0
DWIDTH 2 0
BBX 3 5 0 0
BITMAP
A0
40
80
A0
C0
ENDCHAR
STARTCHAR eth
ENCODING 240
SWIDTH 393 0
DWIDTH 4 0
BBX 4 6 0 0
BITMAP
20
70
60
B0
E0
C0
ENDCHAR
STARTCHAR ntilde
ENCODING 241
SWIDTH 461 0
DWIDTH 4 0
BBX 5 5 0 0
BITMAP
70
20
E0
A8
B0
ENDCHAR
STARTCHAR ograve
ENCODING 242
SWIDTH 393 0
DWIDTH 4 0
BBX 4 5 0 0
BITMAP
60
40
B0
E0
C0
ENDCHAR
STARTCHAR oacute
ENCODING 243
SWIDTH 393 0
DWIDTH 4 0
BBX 4 5 0 0
BITMAP
20
40
B0
E0
C0
ENDCHAR
STARTCHAR ocircumflex
ENCODING 244
SWIDTH 393 0
DWIDTH 4 0
BBX 4 5 0 0
BITMAP
E0
40
B0
E0
C0
ENDCHAR
STARTCHAR otilde
ENCODING 245
SWIDTH 393 0
DWIDTH 4 0
BBX 4 5 0 0
BITMAP
E0
40
B0
E0
C0
ENDCHAR
STARTCHAR odieresis
ENCODING 246
SWIDTH 393 0
DWIDTH 4 0
BBX 4 5 0 0
BITMAP
60
40
B0
E0
C0
ENDCHAR
STARTCHAR divide
ENCODING 247
SWIDTH 350 0
DWIDTH 3 0
BBX 3 3 0 2
BITMAP
40
E0
40
ENDCHAR
STARTCHAR oslash
ENCODING 248
SWIDTH 406 0
DWIDTH 4 0
BBX 5 5 0 -1
BITMAP
60
B8
E0
C0
80
ENDCHAR
STARTCHAR ugrave
ENCODING 249
SWIDTH 468 0
DWIDTH 4 0
BBX 5 5 0 0
BITMAP
60
00
A0
A8
F0
ENDCHAR
STARTCHAR uacute
ENCODING 250
SWIDTH 468 0
DWIDTH 4 0
BBX 5 5 0 0
BITMAP
60
00
A0
A8
F0
ENDCHAR
STARTCHAR ucircumflex
ENCODING 251
SWIDTH 468 0
DWIDTH 4 0
BBX 5 5 0 0
BITMAP
60
00
A0
A8
F0
ENDCHAR
STARTCHAR udieresis
ENCODING 252
SWIDTH 468 0
DWIDTH 4 0
BBX 5 5 0 0
BITMAP
60
00
A0
A8
F0
ENDCHAR
STARTCHAR yacute
ENCODING 253
SWIDTH 406 0
DWIDTH 4 0
BBX 3 9 0 -4
BITMAP
20
00
A0
A0
E0
40
40
40
40
ENDCHAR
STARTCHAR thorn
ENCODING 254
SWIDTH 451 0
DWIDTH 4 0
BBX 6 10 -1 -4
BITMAP
20
20
20
30
54
78
40
80
80
80
ENDCHAR
STARTCHAR ydieresis
ENCODING 255
SWIDTH 406 0
DWIDTH 4 0
BBX 3 9 0 -4
BITMAP
60
00
A0
A0
E0
40
40
40
40
ENDCHAR
STARTCHAR dotlessi
ENCODING 305
SWIDTH 274 0
DWIDTH 2 0
BBX 3 3 0 0
BITMAP
C0
A0
C0
ENDCHAR
STARTCHAR Lslash
ENCODING 321
SWIDTH 492 0
DWIDTH 4 0
BBX 6 9 -1 -2
BITMAP
04
0C
18
70
18
60
20
E0
18
ENDCHAR
STARTCHAR lslash
ENCODING 322
SWIDTH 218 0
DWIDTH 2 0
BBX 3 6 -1 0
BITMAP
20
20
20
C0
40
40
ENDCHAR
STARTCHAR OE
ENCODING 338
SWIDTH 918 0
DWIDTH 8 0
BBX 8 9 0 -2
BITMAP
33
4D
49
88
8E
88
91
9A
6C
ENDCHAR
STARTCHAR oe
ENCODING 339
SWIDTH 583 0
DWIDTH 5 0
BBX 6 4 0 0
BITMAP
50
A8
F4
F8
ENDCHAR
STARTCHAR Scaron
ENCODING 352
SWIDTH 474 0
DWIDTH 4 0
BBX 5 10 0 -2
BITMAP
18
30
48
50
40
20
20
A0
A0
C0
ENDCHAR
STARTCHAR scaron
ENCODING 353
SWIDTH 351 0
DWIDTH 3 0
BBX 3 6 0 0
BITMAP
60
00
40
40
C0
E0
ENDCHAR
STARTCHAR Ydieresis
ENCODING 376
SWIDTH 532 0
DWIDTH 5 0
BBX 5 10 0 -2
BITMAP
28
48
48
48
90
90
B0
50
A0
C0
ENDCHAR
STARTCHAR Zcaron
ENCODING 381
SWIDTH 455 0
DWIDTH 4 0
BBX 6 10 -1 -2
BITMAP
1C
38
48
08
10
20
20
40
A0
D0
ENDCHAR
STARTCHAR zcaron
ENCODING 382
SWIDTH 349 0
DWIDTH 3 0
BBX 5 9 -1 -4
BITMAP
30
70
20
28
50
60
A0
C0
C0
ENDCHAR
STARTCHAR circumflex
ENCODING 710
SWIDTH 567 0
DWIDTH 5 0
BBX 2 1 2 5
BITMAP
C0
ENDCHAR
STARTCHAR caron
ENCODING 711
SWIDTH 567 0
DWIDTH 5 0
BBX 2 1 2 5
BITMAP
C0
ENDCHAR
STARTCHAR breve
ENCODING 728
SWIDTH 567 0
DWIDTH 5 0
BBX 2 1 2 5
BITMAP
C0
ENDCHAR
STARTCHAR dotaccent
ENCODING 729
SWIDTH 567 0
DWIDTH 5 0
BBX 1 1 3 5
BITMAP
80
ENDCHAR
STARTCHAR ring
ENCODING 730
SWIDTH 567 0
DWIDTH 5 0
BBX 2 1 2 5
BITMAP
C0
ENDCHAR
STARTCHAR ogonek
ENCODING 731
SWIDTH 567 0
DWIDTH 5 0
BBX 2 1 2 -1
BITMAP
C0
ENDCHAR
STARTCHAR tilde
ENCODING 732
SWIDTH 567 0
DWIDTH 5 0
BBX 2 1 2 5
BITMAP
C0
ENDCHAR
STARTCHAR hungarumlaut
ENCODING 733
SWIDTH 567 0
DWIDTH 5 0
BBX 3 1 2 5
BITMAP
E0
ENDCHAR
STARTCHAR endash
ENCODING 8211
SWIDTH 353 0
DWIDTH 3 0
BBX 3 1 0 2
BITMAP
E0
ENDCHAR
STARTCHAR emdash
ENCODING 8212
SWIDTH 508 0
DWIDTH 5 0
BBX 4 1 0 2
BITMAP
F0
ENDCHAR
STARTCHAR quoteleft
ENCODING 8216
SWIDTH 155 0
DWIDTH 1 0
BBX 1 2 0 4
BITMAP
80
80
ENDCHAR
STARTCHAR quoteright
ENCODING 8217
SWIDTH 154 0
DWIDTH 1 0
BBX 1 2 1 4
BITMAP
80
80
ENDCHAR
STARTCHAR quotesinglbase
ENCODING 8218
SWIDTH 188 0
DWIDTH 2 0
BBX 1 2 0 -1
BITMAP
80
80
ENDCHAR
STARTCHAR quotedblleft
ENCODING 8220
SWIDTH 289 0
DWIDTH 3 0
BBX 3 2 0 4
BITMAP
A0
A0
ENDCHAR
STARTCHAR quotedblright
ENCODING 8221
SWIDTH 288 0
DWIDTH 3 0
BBX 2 2 1 4
BITMAP
C0
80
ENDCHAR
STARTCHAR quotedblbase
ENCODING 8222
SWIDTH 323 0
DWIDTH 3 0
BBX 2 2 0 -1
BITMAP
C0
C0
ENDCHAR
STARTCHAR bullet
ENCODING 8226
SWIDTH 180 0
DWIDTH 2 0
BBX 1 2 0 2
BITMAP
80
80
ENDCHAR
STARTCHAR ellipsis
ENCODING 8230
SWIDTH 614 0
DWIDTH 6 0
BBX 5 1 0 0
BITMAP
B8
ENDCHAR
STARTCHAR perthousand
ENCODING 8240
SWIDTH 851 0
DWIDTH 8 0
BBX 7 7 0 0
BITMAP
48
A8
B0
60
3E
6E
BE
ENDCHAR
STARTCHAR guilsinglleft
ENCODING 8249
SWIDTH 202 0
DWIDTH 2 0
BBX 2 4 0 0
BITMAP
40
80
80
80
ENDCHAR
STARTCHAR guilsinglright
ENCODING 8250
SWIDTH 202 0
DWIDTH 2 0
BBX 2 3 -1 0
BITMAP
40
40
C0
ENDCHAR
STARTCHAR fraction
ENCODING 8260
SWIDTH 600 0
DWIDTH 5 0
BBX 6 7 0 0
BITMAP
04
08
10
20
20
40
80
ENDCHAR
STARTCHAR Euro
ENCODING 8364
SWIDTH 334 0
DWIDTH 3 0
BBX 3 5 0 1
BITMAP
20
40
E0
80
E0
ENDCHAR
STARTCHAR minus
ENCODING 8722
SWIDTH 353 0
DWIDTH 3 0
BBX 3 1 0 2
BITMAP
E0
ENDCHAR
STARTCHAR fi
ENCODING 64257
SWIDTH 549 0
DWIDTH 5 0
BBX 7 10 -1 -4
BITMAP
24
20
20
78
4A
4C
60
A0
A0
C0
ENDCHAR
STARTCHAR fl
ENCODING 64258
SWIDTH 516 0
DWIDTH 5 0
BBX 6 10 -1 -4
BITMAP
24
28
28
78
48
50
60
A0
A0
C0
ENDCHAR
STARTCHAR .notdef
ENCODING -1
SWIDTH 280 0
DWIDTH 3 0
BBX 1 1 0 0
BITMAP
00
ENDCHAR
ENDFONT
